<svg id="Calque_1" data-name="Calque 1" xmlns="http://www.w3.org/2000/svg" viewBox="0 0 1852.85 1095.71"><defs><style>.cls-1{fill:#fff;}.cls-2{fill:#c09628;}.cls-3{fill:#151516;}</style></defs><circle class="cls-1" cx="879.6" cy="415.41" r="415.41"/><path class="cls-1" d="M257.06,976.87a61.64,61.64,0,0,0-19.6-13.17,60.62,60.62,0,0,0-24-4.8H172.41a20.34,20.34,0,0,1-8-1.57,20.05,20.05,0,0,1-6.51-4.37,19.65,19.65,0,0,1-4.36-6.58,20.64,20.64,0,0,1-1.58-8.08,20.28,20.28,0,0,1,20.47-20.47h94.16V876.75H172.41a59.27,59.27,0,0,0-23.91,4.87,62.58,62.58,0,0,0-32.77,32.77,61.28,61.28,0,0,0,0,47.88,62.39,62.39,0,0,0,32.77,32.84,59.1,59.1,0,0,0,23.91,4.87h41.07a20.26,20.26,0,0,1,14.53,5.94,23.16,23.16,0,0,1,6.25,13.56,30.15,30.15,0,0,1-.4,8.21,21.08,21.08,0,0,1-1.08,3.63c-8.73,17.26-32,29.31-93.2,11.82-22.87-6.53-75-33.57-118-20.53,57.5,12.56,53.94,31.65,120.38,55.9,25.48,9.3,81.11,23,115.11-14.62a62.1,62.1,0,0,0,13.17-19.54,62.22,62.22,0,0,0,0-47.88A61.8,61.8,0,0,0,257.06,976.87Z"/><path class="cls-1" d="M454.86,917.54A83.35,83.35,0,0,0,425.38,888a82,82,0,0,0-19.54-8.3,80,80,0,0,0-21.75-2.94H301.93V1082H343v-41.08h41.08a79.59,79.59,0,0,0,31.84-6.44,82.39,82.39,0,0,0,43.73-43.72,82.14,82.14,0,0,0,3.5-53.6A83.66,83.66,0,0,0,454.86,917.54ZM421.8,974.86A41.23,41.23,0,0,1,400,996.76a39.51,39.51,0,0,1-15.88,3.22H343V917.83h41.08A39.51,39.51,0,0,1,400,921.05a41.26,41.26,0,0,1,21.83,21.89,41.28,41.28,0,0,1,0,31.92Z"/><path class="cls-1" d="M676.76,926.7A105.81,105.81,0,0,0,613.37,878a106.51,106.51,0,0,0-56.32,0,108.4,108.4,0,0,0-25.33,10.66,105.25,105.25,0,0,0-21.55,16.6A108.22,108.22,0,0,0,493.5,926.7,105.15,105.15,0,0,0,479,980.23a103.74,103.74,0,0,0,3.79,28.13,106.88,106.88,0,0,0,74.28,74.27,106.24,106.24,0,0,0,56.32,0,104.81,104.81,0,0,0,25.34-10.73,108.5,108.5,0,0,0,21.46-16.68,104.52,104.52,0,0,0,16.59-21.54,108.2,108.2,0,0,0,10.68-25.32,106.51,106.51,0,0,0,0-56.32A106.76,106.76,0,0,0,676.76,926.7Zm-31.48,78.79a67.26,67.26,0,0,1-13.95,20.68,65.26,65.26,0,0,1-20.76,14,65.38,65.38,0,0,1-50.87,0,66.21,66.21,0,0,1-34.78-34.71,62.53,62.53,0,0,1-5.15-25.26,63.55,63.55,0,0,1,5.15-25.4,65.21,65.21,0,0,1,14-20.76,66.87,66.87,0,0,1,20.75-14,65.38,65.38,0,0,1,50.87,0,65,65,0,0,1,34.71,34.71,63.38,63.38,0,0,1,5.15,25.4A62.37,62.37,0,0,1,645.28,1005.49Z"/><path class="cls-1" d="M871.05,917.54a82.5,82.5,0,0,0-49-37.85,80.09,80.09,0,0,0-21.76-2.94H718.12V1082H759.2v-41.08l45.94-.28L823,1082h43.65l-22.76-53.67a81.6,81.6,0,0,0,16-13.17,80.4,80.4,0,0,0,12.09-16.6,84.2,84.2,0,0,0,7.59-19,81.84,81.84,0,0,0-.28-42.36A83.27,83.27,0,0,0,871.05,917.54ZM838,974.86a41.14,41.14,0,0,1-21.83,21.9,39.51,39.51,0,0,1-15.88,3.22H759.2V917.83h41.08a39.51,39.51,0,0,1,15.88,3.22A41.17,41.17,0,0,1,838,942.94a41.16,41.16,0,0,1,0,31.92Z"/><polygon class="cls-1" points="889.17 917.83 950.85 917.83 950.85 1081.99 991.79 1081.99 991.79 917.83 1053.32 917.83 1053.32 876.75 889.17 876.75 889.17 917.83"/><rect class="cls-1" x="1075.07" y="876.75" width="200.08" height="205.23"/><polygon class="cls-1" points="1141.92 876.75 1141.92 917.83 1229.51 917.83 1141.92 1081.99 1300.77 1081.99 1300.77 1040.91 1213.48 1040.91 1300.77 876.75 1141.92 876.75"/><polygon class="cls-1" points="1326.24 1081.99 1466.93 1081.99 1466.93 1040.91 1367.32 1040.91 1367.32 999.98 1434.73 999.98 1434.73 958.9 1367.32 958.9 1367.32 917.83 1466.93 917.83 1466.93 876.75 1326.24 876.75 1326.24 1081.99"/><path class="cls-1" d="M1725.37,1045.35c-62.8,19.94-102.5-17.91-102.5-17.91a69.42,69.42,0,0,0,14.66-12.29,80.4,80.4,0,0,0,12.09-16.6,84.2,84.2,0,0,0,7.59-19,81.7,81.7,0,0,0-.29-42.36A83.06,83.06,0,0,0,1619.14,888a82,82,0,0,0-19.53-8.3,80.09,80.09,0,0,0-21.76-2.94h-82.16V1082h41.08v-41.08s25.35-.26,43.5-.28c.83,0,9.24,7.15,12.71,11,26.51,29.12,68.1,41.05,109.6,34.38,60-9.65,78.44-50.12,116.34-57.58C1792.58,1020,1749.28,1037.76,1725.37,1045.35Zm-188.6-127.52h41.08a39.6,39.6,0,0,1,15.89,3.22,41.28,41.28,0,0,1,21.82,21.89,41.16,41.16,0,0,1,0,31.92,41.26,41.26,0,0,1-21.82,21.9,39.6,39.6,0,0,1-15.89,3.22h-41.08Z"/><path class="cls-1" d="M723.27,77.94S554.4,147.25,521.69,292.52s1.46,327.21,86.64,399.93S710,744.74,710,744.74l347.48-666.8S874.06-8.47,723.27,77.94Z"/><path class="cls-2" d="M1077.92,105c12.26,9.1,25.12,17.5,36.66,27.43,41.63,35.78,75.18,78,99.26,127.53,5.22,10.75,6.76,21.21,5.48,33.21-7.79,73.09-55.14,119.31-121.57,137.49-10.72,2.94-21.65,5.22-32.61,7.12-11.28,2-12.38.09-9.9-11.47,6.31-29.49,14-58.81,18.17-88.61,10.25-72.5,11.26-145.27,1.69-218-.53-4.07-.47-8.22-.69-12.34Z"/><path class="cls-2" d="M1239.38,344.34c1.75,5.3,3.56,9,4.17,12.93,13.26,85.25-3.45,165-44.17,240.38-3.91,7.24-8.84,9-16.77,7.17a914.91,914.91,0,0,1-158.76-51.41c-14.36-6.19-14.24-6.86-7.68-21.54,7.61-17.06,15-34.25,21.68-51.68,3.4-8.83,8.65-12.9,18.16-13.84,46.35-4.61,89.14-19,126-48.32,21.74-17.26,38.69-38.41,49.79-64a42,42,0,0,1,3-5.69C1235.4,347.45,1236.41,346.9,1239.38,344.34Z"/><path class="cls-2" d="M1049.31,149.39c.88,7,2.24,14,2.56,21,3.84,83.69-.87,166.63-22.39,248-5.37,20.32-5.75,20.5-25.31,13.21-29.23-10.9-52.66-28.93-69.58-55.34-4.22-6.59-5.69-12.38-1.59-19.9q54.43-99.81,108.41-199.9a88.46,88.46,0,0,1,5.31-7.74Z"/><path class="cls-2" d="M1036.34,744.65c-.19-2-.8-4.14-.5-6.09,7.53-48-15-81.62-51.92-108-19.48-14-21.91-9.63-6.1-31.86,3.12-4.38,5.93-9,8.78-13.56,8.71-13.94,9.27-13.65,25-7.75q55.42,20.8,111.25,40.55c12.49,4.4,25.65,6.91,38.48,10.37,3.72,1,7.37,2.31,10.94,3.45C1166.41,659,1067.51,741,1036.34,744.65Z"/><path class="cls-2" d="M792.13,770.06c6.33-4.27,9.7-6.77,13.27-8.93,49.55-30,94.39-65.62,132.32-109.64,9.82-11.39,12.61-12.4,23.9-2.76,13,11.11,26.33,22.67,36.24,36.4,16.38,22.71,14.48,51.09-2.22,73.53a21.43,21.43,0,0,1-10.28,7.07c-59.65,18.48-120.13,20.25-181.2,8.35C801.15,773.49,798.29,772.14,792.13,770.06Z"/><path class="cls-2" d="M747.66,756.36c-5.69-2.17-12.89-3.94-18.79-7.73-2-1.27-2.14-8.52-.51-11.69,13-25.25,26.63-50.17,40-75.21,9.67-18.06,19.53-36,28.89-54.25,4.39-8.55,10.14-12.44,19.91-9.83,30.82,8.22,61.84,15.74,92.48,24.55,10.69,3.08,10.61,5.49,3,14.08-43.57,48.93-95,87.49-153.58,116.72a60.34,60.34,0,0,1-7,2.81A25.29,25.29,0,0,1,747.66,756.36Z"/><path class="cls-2" d="M915.54,396.22a71.74,71.74,0,0,0,3.63,6.62c19.56,28.41,47.22,45.56,79.16,56.69,15.6,5.44,16,5.84,9.59,21.33-6.15,14.93-12.76,29.67-19.09,44.53-3,7-7.31,9-14.38,5q-45.88-26-92-51.65c-8.6-4.77-10.57-10.11-5.35-19.08,9-15.51,17-31.63,25.59-47.39,2.7-4.95,5.93-9.61,8.91-14.4Z"/><path class="cls-2" d="M967.75,560.79c-2.12,4.08-3.25,6.71-4.76,9.1-5.38,8.49-11,16.8-16.29,25.37-4.06,6.64-9,8.49-16.25,5.06-31.76-15.07-65.51-23.41-100.08-28.57C820.08,570.21,819.6,566,824,558.1c9.76-17.57,19.39-35.22,28.75-53,3.8-7.23,7.88-7.4,14.62-3.46C897.09,519,927.12,535.9,957,553.09,960.74,555.26,964.1,558.16,967.75,560.79Z"/><path class="cls-3" d="M880.19,19.1h-.58c-210.85,0-395.14,167-395.59,396-.45,220.57,176,395.07,394.18,396.06H880c215.66,0,395-171.48,394.6-396.73C1274.26,184.94,1089.16,19.39,880.19,19.1Zm174.68,407.29c6.31-29.49,14-58.81,18.17-88.61,10.25-72.5,11.26-145.28,1.69-218-.53-4.07-.47-8.22-.69-12.34l3.51-2.32c12.26,9.1,25.11,17.5,36.66,27.43,41.63,35.78,75.18,78,99.26,127.53,5.22,10.75,6.76,21.21,5.48,33.21-7.8,73.09-55.14,119.31-121.57,137.49-10.72,2.94-21.66,5.22-32.61,7.12a36.86,36.86,0,0,1-6,.67C1053.18,438.53,1052.93,435.42,1054.87,426.39Zm-8.52-277.5,2.59.59c.88,7,2.24,14,2.56,21,3.84,83.69-.87,166.63-22.39,248-3.38,12.78-4.78,17.59-10.22,17.59-3.21,0-7.83-1.68-15.09-4.38-29.23-10.9-52.66-28.93-69.58-55.35-4.22-6.58-5.69-12.37-1.59-19.89q54.43-99.81,108.41-199.9A86.32,86.32,0,0,1,1046.35,148.89ZM882.06,478.81c-8.59-4.77-10.56-10.11-5.34-19.09,9-15.5,17-31.62,25.59-47.38,2.69-4.95,5.92-9.61,8.91-14.4l3.95-1.63a71.57,71.57,0,0,0,3.63,6.61c19.56,28.42,47.22,45.57,79.15,56.7,15.61,5.44,16,5.84,9.6,21.32-6.15,14.94-12.76,29.68-19.09,44.54-2,4.61-4.49,7-8,7a13.33,13.33,0,0,1-6.39-2Q928.2,504.44,882.06,478.81Zm85.32,82.07c-2.12,4.08-3.25,6.71-4.76,9.1-5.38,8.49-11,16.8-16.29,25.37-2.72,4.45-5.85,6.75-9.8,6.75a15.22,15.22,0,0,1-6.45-1.69C898.32,585.34,864.57,577,830,571.84c-10.29-1.54-10.77-5.76-6.39-13.65,9.77-17.57,19.4-35.22,28.75-53,2.22-4.22,4.54-6,7.41-6,2.06,0,4.41.93,7.22,2.58,29.73,17.39,59.76,34.27,89.61,51.46C960.37,555.35,963.73,558.25,967.38,560.88ZM898.45,52.3a30.56,30.56,0,0,1,7.36-.75c45.81,3.48,86.38,13.6,124,30.93,5.46,2.51,8.42,4.9,9.31,7.51s0,6.47-2.91,12c-3.07,5.86-6.25,11.79-9.42,17.69-3.76,7-7.64,14.21-11.34,21.38-2.17,4.21-4.2,4.78-5.89,4.78a11.92,11.92,0,0,1-4.06-.88c-5.78-2.12-11.72-4-17.66-6-5.61-1.81-11.4-3.68-17.07-5.75a21.5,21.5,0,0,1-8.36-5.82C946.52,109.53,930.48,91.2,915,73.48l-12.9-14.74c-1.29-1.48-2.56-3-4.38-5.13l-.88-1ZM720.27,88.78c27-19.71,59.92-26.8,88.61-31.15,13.11-2,26.26-2.25,37.39-2.25,4.68,0,9.45,0,14.22.11,4.12,0,8.25.1,12.36.11a19.86,19.86,0,0,1,12.57,5.2c16.23,16.64,32.37,34,48,50.68l.43.46,12.85,13.77c3.05,3.25,4.38,5.89,4.19,8.28s-2.2,5.25-6,8.22c-35.39,27.84-64.21,55.48-88.14,84.53A16.65,16.65,0,0,1,845.88,232c-63.89,1.1-120.3,7.81-172.44,20.52-.58.15-1.17.26-2.35.51l-1.81.37c-.41-.29-.87-.59-1.37-.91-1.82-1.19-4.09-2.66-5.21-4.48-10.52-17.15-20.8-34.85-30.74-52l-1.51-2.61c-3.29-5.67-2.64-10.76,2.16-17C660.29,140.33,689,111.67,720.27,88.78Zm-56.11,33.51c-2.78,2.9-5.54,5.87-8.17,8.91-13.64,15.78-25.38,29.85-35.88,43-8.18,10.26-18.86,16.34-30.29,21.55C611.55,164.37,636,140.18,664.16,122.29ZM586.31,632.62c-42.09-57.37-65.37-116.22-71.17-179.92a129.67,129.67,0,0,1-.45-16.9c.54-13.13,2.34-14.18,12.18-14.18,1.51,0,3.28.06,5.3.16,4.07.38,8.3.8,12.66,1.24l.33,0c11.1,1.11,22.59,2.26,34.3,3.15,6.72.52,9.3,4.75,12.46,11.14,19.47,39.39,44,85,78.25,124.41,17,19.59,27,38.46,20.33,67.07-2.2,16.6-1.84,27.61-1.46,39.28.17,5,.34,10.21.28,15.87-.09,8.48-1.22,8.48-2.21,8.48-1.38,0-3.63-.63-7.08-2-4.76-1.86-9.64-3.69-14.36-5.46-16.14-6-32.82-12.31-47.72-20.88C604.87,656.59,594.17,643.33,586.31,632.62Zm115.27,93.67c-2.35,4.14-4,4.14-4.55,4.14a7,7,0,0,1-3.78-1.64c-19.61-14.41-39.1-28.81-58-42.84,4.89,1.86,9.81,3.71,14.83,5.6,15.57,5.87,31.67,11.93,47.21,18.53,4.16,1.76,6.52,3.63,7.22,5.71C705.3,718.06,704.36,721.39,701.58,726.29ZM679.13,556.84c-30.15-41.06-54.24-79.45-73.65-117.36-4.43-8.63-5.3-16.34-2.83-25,12.92-45.4,28.88-93.39,57.86-136.75,6.06-9.08,13.45-14.23,24-16.73,51.57-12.25,103.2-15.94,151.31-18.12l1.52,0c8.22,0,13.59,3.06,18.54,10.56,17,25.79,34.39,50.77,50.63,73.91,3.78,5.39,4.11,9.63,1.16,15.13-43.27,80.61-82.84,154.68-121,226.43C782,577.66,777,580.74,769,580.33c-1.32-.07-2.71-.1-4.13-.1-5.23,0-10.51.46-15.65.92-2,.17-4,.35-6,.5l-2.3-.06c-.94,0-1.88-.05-3-.1a33.38,33.38,0,0,0-7.2.22C710.23,585.57,694.92,578.34,679.13,556.84ZM751.71,755.9a25.29,25.29,0,0,1-4.42.55c-5.69-2.17-12.9-3.94-18.79-7.73-2-1.27-2.14-8.52-.51-11.69,13-25.25,26.63-50.17,40-75.21,9.68-18.06,19.54-36,28.9-54.26,3.48-6.78,7.82-10.63,14.34-10.63a22.06,22.06,0,0,1,5.57.8c30.82,8.23,61.83,15.75,92.48,24.56,10.69,3.08,10.61,5.49,3,14.08-43.57,48.93-95,87.49-153.59,116.72A60.19,60.19,0,0,1,751.71,755.9Zm243.56,2.85A21.54,21.54,0,0,1,985,765.82a353.7,353.7,0,0,1-105.3,15.89,395.63,395.63,0,0,1-75.9-7.55c-3-.58-5.87-1.93-12-4,6.33-4.27,9.7-6.77,13.27-8.93,49.55-30,94.39-65.62,132.31-109.64,5.35-6.2,8.62-9.33,12.3-9.33,3.09,0,6.47,2.18,11.61,6.57,13,11.11,26.33,22.67,36.24,36.4C1013.87,707.93,1012,736.31,995.27,758.75Zm40.7-14c-.19-2-.8-4.14-.5-6.09,7.53-48-15-81.62-51.92-108-19.48-14-21.91-9.63-6.1-31.86,3.12-4.38,5.92-9,8.78-13.56,5.21-8.34,7.5-11.58,11.87-11.58,2.93,0,6.79,1.46,13.1,3.83q55.42,20.8,111.24,40.55c12.5,4.4,25.65,6.91,38.48,10.37,3.73,1,7.38,2.31,10.95,3.45C1166,659.06,1067.14,741,1036,744.74Zm151.47-139.16a23.11,23.11,0,0,1-5.2-.67,914.91,914.91,0,0,1-158.76-51.41c-14.36-6.19-14.24-6.86-7.68-21.54,7.61-17.06,15-34.25,21.68-51.68,3.4-8.83,8.65-12.9,18.15-13.84,46.36-4.61,89.15-19,126-48.32,21.74-17.26,38.69-38.41,49.79-64a42,42,0,0,1,3-5.69c.53-.85,1.55-1.4,4.52-4,1.74,5.3,3.56,9,4.17,12.93,13.26,85.25-3.45,165-44.17,240.38C1196,603.25,1192.47,605.58,1187.44,605.58Z"/></svg>